<mxfile host="app.diagrams.net" agent="Mozilla/5.0 (Windows NT 10.0; Win64; x64) AppleWebKit/537.36 (KHTML, like Gecko) Chrome/140.0.0.0 Safari/537.36" version="27.1.6">
  <diagram name="Page-1" id="e7e014a7-5840-1c2e-5031-d8a46d1fe8dd">
    <mxGraphModel dx="560" dy="331" grid="0" gridSize="10" guides="1" tooltips="1" connect="1" arrows="1" fold="1" page="1" pageScale="1" pageWidth="1169" pageHeight="826" background="none" math="0" shadow="0">
      <root>
        <mxCell id="0" />
        <mxCell id="1" parent="0" />
        <mxCell id="2" value="应急响应子系统" style="swimlane;whiteSpace=wrap;startSize=23;" parent="1" vertex="1">
          <mxGeometry x="436" y="122" width="280" height="570" as="geometry" />
        </mxCell>
        <mxCell id="ORBnftc5wiz7zVl-WYrO-55" style="edgeStyle=orthogonalEdgeStyle;rounded=0;orthogonalLoop=1;jettySize=auto;html=1;exitX=0.5;exitY=1;exitDx=0;exitDy=0;entryX=0;entryY=0.5;entryDx=0;entryDy=0;" edge="1" parent="2" source="7" target="ORBnftc5wiz7zVl-WYrO-54">
          <mxGeometry relative="1" as="geometry" />
        </mxCell>
        <mxCell id="7" value="自动启动应急响应" style="rounded=1;arcSize=50;" parent="2" vertex="1">
          <mxGeometry x="60" y="68" width="146" height="24" as="geometry" />
        </mxCell>
        <mxCell id="ORBnftc5wiz7zVl-WYrO-45" style="edgeStyle=orthogonalEdgeStyle;rounded=0;orthogonalLoop=1;jettySize=auto;html=1;entryX=0.5;entryY=0;entryDx=0;entryDy=0;" edge="1" parent="2" source="ORBnftc5wiz7zVl-WYrO-43" target="7">
          <mxGeometry relative="1" as="geometry">
            <mxPoint x="115" y="85.03937744140626" as="targetPoint" />
          </mxGeometry>
        </mxCell>
        <mxCell id="ORBnftc5wiz7zVl-WYrO-43" value="" style="ellipse;whiteSpace=wrap;html=1;aspect=fixed;fillColor=#000000;" vertex="1" parent="2">
          <mxGeometry x="6.5" y="31" width="30" height="30" as="geometry" />
        </mxCell>
        <mxCell id="38" value="" style="ellipse;shape=endState;fillColor=#000000;strokeColor=#000000;" parent="2" vertex="1">
          <mxGeometry x="243.5" y="537" width="30" height="30" as="geometry" />
        </mxCell>
        <mxCell id="ORBnftc5wiz7zVl-WYrO-46" value="解除警报" style="rounded=1;arcSize=50;" vertex="1" parent="2">
          <mxGeometry x="54.5" y="458" width="110" height="27" as="geometry" />
        </mxCell>
        <mxCell id="ORBnftc5wiz7zVl-WYrO-52" style="edgeStyle=orthogonalEdgeStyle;rounded=0;orthogonalLoop=1;jettySize=auto;html=1;exitX=0.5;exitY=1;exitDx=0;exitDy=0;entryX=0;entryY=0.5;entryDx=0;entryDy=0;" edge="1" parent="2" source="ORBnftc5wiz7zVl-WYrO-47" target="38">
          <mxGeometry relative="1" as="geometry" />
        </mxCell>
        <mxCell id="ORBnftc5wiz7zVl-WYrO-47" value="录入相关信息至数据库" style="rounded=1;arcSize=50;" vertex="1" parent="2">
          <mxGeometry x="31.5" y="505" width="161" height="27" as="geometry" />
        </mxCell>
        <mxCell id="4" value="抢险队" style="swimlane;whiteSpace=wrap" parent="2" vertex="1">
          <mxGeometry x="-280" width="280" height="570" as="geometry" />
        </mxCell>
        <mxCell id="ORBnftc5wiz7zVl-WYrO-62" style="edgeStyle=orthogonalEdgeStyle;rounded=0;orthogonalLoop=1;jettySize=auto;html=1;exitX=1;exitY=0.25;exitDx=0;exitDy=0;entryX=0.5;entryY=0;entryDx=0;entryDy=0;" edge="1" parent="2" source="ORBnftc5wiz7zVl-WYrO-54" target="ORBnftc5wiz7zVl-WYrO-58">
          <mxGeometry relative="1" as="geometry" />
        </mxCell>
        <mxCell id="ORBnftc5wiz7zVl-WYrO-63" style="edgeStyle=orthogonalEdgeStyle;rounded=0;orthogonalLoop=1;jettySize=auto;html=1;exitX=1;exitY=0.75;exitDx=0;exitDy=0;entryX=0.5;entryY=0;entryDx=0;entryDy=0;" edge="1" parent="2" source="ORBnftc5wiz7zVl-WYrO-54" target="ORBnftc5wiz7zVl-WYrO-57">
          <mxGeometry relative="1" as="geometry" />
        </mxCell>
        <mxCell id="ORBnftc5wiz7zVl-WYrO-54" value="" style="whiteSpace=wrap;strokeColor=#000000;fillColor=#000000;rotation=90;" vertex="1" parent="2">
          <mxGeometry x="140" y="12" width="5" height="202" as="geometry" />
        </mxCell>
        <mxCell id="ORBnftc5wiz7zVl-WYrO-57" value="监测传感器异常" style="rounded=1;arcSize=50;" vertex="1" parent="2">
          <mxGeometry x="25" y="138" width="110" height="27" as="geometry" />
        </mxCell>
        <mxCell id="ORBnftc5wiz7zVl-WYrO-58" value="监测传感器异常" style="rounded=1;arcSize=50;" vertex="1" parent="2">
          <mxGeometry x="138" y="171" width="110" height="27" as="geometry" />
        </mxCell>
        <mxCell id="3" value="铁路管理局" style="swimlane;whiteSpace=wrap" parent="1" vertex="1">
          <mxGeometry x="716" y="122" width="280" height="570" as="geometry" />
        </mxCell>
        <mxCell id="15" value="idle" style="" parent="3" vertex="1">
          <mxGeometry x="20" y="110" width="110" height="50" as="geometry" />
        </mxCell>
        <mxCell id="16" value="check for &#xa;new commands" style="" parent="3" vertex="1">
          <mxGeometry x="20" y="220" width="110" height="50" as="geometry" />
        </mxCell>
        <mxCell id="17" value="" style="endArrow=open;strokeColor=#FF0000;endFill=1;rounded=0" parent="3" source="15" target="16" edge="1">
          <mxGeometry relative="1" as="geometry" />
        </mxCell>
        <mxCell id="18" value="command queue" style="" parent="3" vertex="1">
          <mxGeometry x="20" y="325" width="110" height="50" as="geometry" />
        </mxCell>
        <mxCell id="19" value="" style="endArrow=open;strokeColor=#FF0000;endFill=1;rounded=0" parent="3" source="16" target="18" edge="1">
          <mxGeometry relative="1" as="geometry" />
        </mxCell>
        <mxCell id="21" value="queue empty" style="rhombus;fillColor=#ffffc0;strokeColor=#ff0000;" parent="3" vertex="1">
          <mxGeometry x="150" y="225" width="80" height="40" as="geometry" />
        </mxCell>
        <mxCell id="22" value="yes" style="edgeStyle=elbowEdgeStyle;elbow=horizontal;align=left;verticalAlign=bottom;endArrow=open;endSize=8;strokeColor=#FF0000;exitX=0.5;exitY=0;endFill=1;rounded=0;entryX=0.75;entryY=0.5;entryPerimeter=0" parent="3" source="21" target="25" edge="1">
          <mxGeometry x="-1" relative="1" as="geometry">
            <mxPoint x="160" y="150" as="targetPoint" />
            <Array as="points">
              <mxPoint x="190" y="180" />
            </Array>
          </mxGeometry>
        </mxCell>
        <mxCell id="23" value="no" style="edgeStyle=elbowEdgeStyle;elbow=horizontal;align=left;verticalAlign=top;endArrow=open;endSize=8;strokeColor=#FF0000;endFill=1;rounded=0" parent="3" source="21" target="30" edge="1">
          <mxGeometry x="-1" relative="1" as="geometry">
            <mxPoint x="190" y="305" as="targetPoint" />
          </mxGeometry>
        </mxCell>
        <mxCell id="24" value="" style="endArrow=open;strokeColor=#FF0000;endFill=1;rounded=0" parent="3" source="16" target="21" edge="1">
          <mxGeometry relative="1" as="geometry" />
        </mxCell>
        <mxCell id="25" value="" style="shape=line;strokeWidth=6;strokeColor=#ff0000;rotation=90" parent="3" vertex="1">
          <mxGeometry x="130" y="127.5" width="50" height="15" as="geometry" />
        </mxCell>
        <mxCell id="26" value="" style="edgeStyle=elbowEdgeStyle;elbow=horizontal;verticalAlign=bottom;endArrow=open;endSize=8;strokeColor=#FF0000;endFill=1;rounded=0" parent="3" source="25" target="15" edge="1">
          <mxGeometry x="130" y="90" as="geometry">
            <mxPoint x="230" y="140" as="targetPoint" />
          </mxGeometry>
        </mxCell>
        <mxCell id="30" value="dispatch&#xa;command&#xa;worker thread" style="" parent="3" vertex="1">
          <mxGeometry x="140" y="325" width="110" height="50" as="geometry" />
        </mxCell>
        <mxCell id="34" value="" style="whiteSpace=wrap;strokeColor=#FF0000;fillColor=#FF0000" parent="3" vertex="1">
          <mxGeometry x="245" y="395" width="5" height="45" as="geometry" />
        </mxCell>
        <mxCell id="41" value="" style="edgeStyle=elbowEdgeStyle;elbow=horizontal;entryX=0;entryY=0.5;strokeColor=#FF0000;endArrow=open;endFill=1;rounded=0" parent="3" source="30" target="34" edge="1">
          <mxGeometry width="100" height="100" relative="1" as="geometry">
            <mxPoint x="60" y="480" as="sourcePoint" />
            <mxPoint x="160" y="380" as="targetPoint" />
            <Array as="points">
              <mxPoint x="195" y="400" />
            </Array>
          </mxGeometry>
        </mxCell>
        <mxCell id="ORBnftc5wiz7zVl-WYrO-50" value="" style="rhombus;whiteSpace=wrap;html=1;" vertex="1" parent="3">
          <mxGeometry x="46.5" y="456.5" width="30" height="30" as="geometry" />
        </mxCell>
        <mxCell id="ORBnftc5wiz7zVl-WYrO-49" style="edgeStyle=orthogonalEdgeStyle;rounded=0;orthogonalLoop=1;jettySize=auto;html=1;entryX=0;entryY=0.5;entryDx=0;entryDy=0;" edge="1" parent="1" source="ORBnftc5wiz7zVl-WYrO-46" target="ORBnftc5wiz7zVl-WYrO-50">
          <mxGeometry relative="1" as="geometry">
            <mxPoint x="754.9833984375" y="579.5" as="targetPoint" />
          </mxGeometry>
        </mxCell>
        <mxCell id="ORBnftc5wiz7zVl-WYrO-51" style="edgeStyle=orthogonalEdgeStyle;rounded=0;orthogonalLoop=1;jettySize=auto;html=1;exitX=0.5;exitY=1;exitDx=0;exitDy=0;entryX=1;entryY=0.5;entryDx=0;entryDy=0;" edge="1" parent="1" source="ORBnftc5wiz7zVl-WYrO-50" target="ORBnftc5wiz7zVl-WYrO-47">
          <mxGeometry relative="1" as="geometry" />
        </mxCell>
        <mxCell id="ORBnftc5wiz7zVl-WYrO-53" value="解除风险认定" style="edgeLabel;html=1;align=center;verticalAlign=middle;resizable=0;points=[];" vertex="1" connectable="0" parent="ORBnftc5wiz7zVl-WYrO-51">
          <mxGeometry x="-0.1096" y="-2" relative="1" as="geometry">
            <mxPoint x="-13" y="2" as="offset" />
          </mxGeometry>
        </mxCell>
      </root>
    </mxGraphModel>
  </diagram>
</mxfile>
